<svg xmlns="http://www.w3.org/2000/svg" id="Layer_1" viewBox="0 0 120 120.63">
    <defs>
        <style>
            .cls-2{fill:#1756e6}.cls-4{fill:#fff}
        </style>
    </defs>
    <path fill="#cbe6ff" d="M15.79 65.6H39.2V103.34H15.79z"/>
    <path d="M15.79 73.58H39.2V95.37H15.79z" class="cls-2"/>
    <path fill="#69b3f6" d="M39.2 75.7s11.22-8 15.64-8 16.59 3.13 18.32 3.49 3 3 1.64 4.47l25-3.54a3.86 3.86 0 0 1 4.2 2.53 3.87 3.87 0 0 1-2.13 4.91L74.14 91.25a16.91 16.91 0 0 1-6 1.31l-28.95.88"/>
    <circle cx="63.84" cy="37.93" r="20.64" class="cls-2"/>
    <path d="M64 39h-.23c-3.4-.81-4.7-2.94-4.79-4.68a4 4 0 0 1 2.86-4c4-1.41 6.42.64 6.52.73a1 1 0 0 1 .09 1.41 1 1 0 0 1-1.41.1c-.08-.07-1.68-1.35-4.54-.36a2 2 0 0 0-1.52 2c0 1 .93 2.28 3.25 2.84A1 1 0 0 1 64 39z" class="cls-4"/>
    <path d="M63.1 46.07a5.9 5.9 0 01-3.78-1.23 1 1 0 011.32-1.5c.08.07 1.68 1.35 4.54.35a2 2 0 001.52-2c0-1-.93-2.28-3.25-2.84a1 1 0 01.46-1.94c3.4.81 4.7 3 4.79 4.68a4 4 0 01-2.86 4 8.5 8.5 0 01-2.74.48zM64.2 31.79a1 1 0 01-1-1v-2.88a1 1 0 112 0v2.88a1 1 0 01-1 1z" class="cls-4"/>
    <path d="M64.2 49a1 1 0 0 1-1-1v-2.93a1 1 0 0 1 2 0V48a1 1 0 0 1-1 1z" class="cls-4"/>
</svg>
